<svg width="640" height="370" viewBox="0 0 640 370" fill="none" xmlns="http://www.w3.org/2000/svg">
<rect width="640" height="370" fill="#444444"/>
<path fill-rule="evenodd" clip-rule="evenodd" d="M310.893 139.286C292.45 139.286 277.5 153.357 277.5 170.714C277.5 172.18 277.606 173.619 277.811 175.025C278.183 177.586 276.683 180.063 274.152 181.067C265.407 184.534 259.286 192.672 259.286 202.143C259.286 214.767 270.159 225 283.571 225H350.357C367.123 225 380.714 212.208 380.714 196.429C380.714 180.649 367.123 167.857 350.357 167.857C350.063 167.857 349.769 167.861 349.477 167.869C346.597 167.946 344.056 166.107 343.395 163.468C339.921 149.602 326.68 139.286 310.893 139.286ZM265.357 170.714C265.357 147.045 285.744 127.857 310.893 127.857C330.779 127.857 347.676 139.85 353.886 156.565C375.707 158.253 392.857 175.456 392.857 196.429C392.857 218.52 373.829 236.429 350.357 236.429H283.571C263.452 236.429 247.143 221.078 247.143 202.143C247.143 189.431 254.492 178.345 265.393 172.426C265.369 171.858 265.357 171.287 265.357 170.714Z" fill="#3F8AE0"/>
</svg>
