<svg width="640" height="370" viewBox="0 0 640 370" fill="none" xmlns="http://www.w3.org/2000/svg">
<rect width="640" height="370" fill="#444444"/>
<path d="M320 257.857C279.762 257.857 247.143 225.238 247.143 185C247.143 144.762 279.762 112.143 320 112.143C360.238 112.143 392.857 144.762 392.857 185C392.857 225.238 360.238 257.857 320 257.857ZM320 245.714C353.531 245.714 380.714 218.531 380.714 185C380.714 151.468 353.531 124.286 320 124.286C286.469 124.286 259.286 151.468 259.286 185C259.286 218.531 286.469 245.714 320 245.714ZM320 227.5C296.528 227.5 277.5 208.472 277.5 185C277.5 161.528 296.528 142.5 320 142.5C343.472 142.5 362.5 161.528 362.5 185C362.5 208.472 343.472 227.5 320 227.5ZM320 215.357C336.766 215.357 350.357 201.766 350.357 185C350.357 168.234 336.766 154.643 320 154.643C303.235 154.643 289.643 168.234 289.643 185C289.643 201.766 303.235 215.357 320 215.357ZM320 197.143C326.707 197.143 332.143 191.706 332.143 185C332.143 178.293 326.707 172.857 320 172.857C313.294 172.857 307.857 178.293 307.857 185C307.857 191.706 313.294 197.143 320 197.143Z" fill="#2688EB"/>
</svg>
