<svg width="640" height="370" viewBox="0 0 640 370" fill="none" xmlns="http://www.w3.org/2000/svg">
<rect width="640" height="370" fill="#444444"/>
<path d="M254.851 100.018C254.677 100.213 255.069 100.866 256.133 102.125C256.827 102.928 257.262 103.774 257.783 105.273C258.173 106.402 258.632 107.509 258.805 107.727C259.066 108.074 259.086 107.989 259.108 106.946V105.795L260.652 107.923C262.996 111.158 264.452 112.875 265.429 113.57C265.929 113.896 266.233 114.221 266.103 114.264C265.756 114.373 262.714 112.7 261.302 111.615C260.585 111.072 259.914 110.616 259.805 110.616C259.696 110.616 259.348 110.289 259.044 109.898C258.762 109.507 258.09 108.901 257.59 108.554C256.374 107.707 255.092 106.49 254.787 105.905C254.571 105.469 253.898 105.187 253.898 105.535C253.898 105.882 255.634 108.205 256.98 109.638C261.106 114.047 265.321 116.24 276.592 119.758C278.981 120.497 281.088 121.235 281.283 121.409C281.458 121.561 281.805 121.691 282.044 121.691C282.261 121.691 282.607 121.798 282.781 121.907C283.063 122.08 283.041 122.126 282.715 122.126C282.454 122.126 282.346 122.254 282.389 122.514C282.454 122.905 283.519 123.255 285.56 123.537C286.472 123.668 286.689 123.625 286.689 123.364C286.689 123.017 286.059 122.776 285.125 122.776C284.778 122.776 284.518 122.67 284.518 122.561C284.518 122.431 284.737 122.384 285.019 122.428C285.28 122.493 286.189 122.645 287.014 122.796C288.969 123.122 289.515 123.34 289.515 123.753C289.515 124.209 290.1 124.404 290.49 124.078C290.708 123.883 290.816 123.884 290.816 124.059C290.816 124.188 290.923 124.297 291.031 124.297C291.162 124.297 291.251 124.146 291.251 123.971C291.251 123.559 291.032 123.556 294.681 124.122C296.852 124.447 297.656 124.667 297.33 124.775C296.636 125.036 297.027 125.383 298.004 125.383C298.504 125.383 298.851 125.492 298.851 125.622C298.851 125.817 299.349 125.839 300.588 125.751C301.717 125.664 302.37 125.686 302.457 125.838C302.543 125.968 302.912 126.033 303.303 125.968C303.672 125.902 304.692 125.992 305.518 126.143C307.689 126.556 313.531 126.883 326.605 127.339C347.734 128.077 363.133 129.66 368.911 131.701C371.473 132.613 375.339 134.569 376.055 135.307C377.185 136.501 377.53 137.479 377.4 139.085C377.335 139.889 377.335 140.607 377.4 140.673C378.03 141.303 379.422 140.064 379.422 138.87C379.422 138.63 379.875 138.045 380.461 137.545C382.806 135.482 383.155 134.329 382.895 129.616C382.721 126.446 382.676 126.229 381.265 121.582C379.419 115.5 378.987 114.567 376.772 112.222C374.166 109.485 371.798 107.921 368.561 106.813C367.78 106.553 366.129 105.946 364.869 105.468C363.111 104.774 361.851 104.47 359.288 104.101C355.661 103.579 347.865 103.211 345.433 103.45C344.564 103.537 341.089 103.45 337.288 103.211C332.968 102.972 330.318 102.885 329.689 103.015C329.146 103.124 328.212 103.209 327.603 103.231C326.713 103.231 326.302 103.363 325.542 103.928C324.652 104.579 324.02 104.773 321.544 105.186C317.549 105.838 314.964 106.357 313.878 106.727C313.031 107.031 311.642 107.227 309.492 107.357C303.606 107.727 300.263 108.032 299.525 108.271C299.025 108.423 297.112 108.465 293.92 108.4C290.033 108.313 289.036 108.358 288.841 108.596C288.645 108.813 288.731 108.878 289.252 108.878C290.533 108.878 301.979 109.769 302.088 109.877C302.197 109.986 300.154 109.898 294.312 109.529C292.596 109.42 291.077 109.397 290.969 109.463C290.556 109.723 287.471 109.68 284.518 109.376C280.87 109.007 277.353 108.399 274.095 107.574C272.575 107.204 270.793 106.925 269.533 106.86C267.21 106.751 264.732 105.946 261.236 104.187C258.934 103.036 258.676 102.994 258.676 103.928V104.642L257.978 103.776C257.587 103.32 257.111 102.58 256.916 102.146C256.525 101.32 255.068 99.8222 254.851 100.018ZM258.098 122.604C254.063 122.795 250.35 125.938 247.686 131.549C246.1 134.915 245.819 136.219 245.71 140.694C245.624 144.211 245.665 144.93 246.165 147.861C247.229 153.964 247.511 154.679 249.748 156.872C252.115 159.218 258.003 162.433 261.282 163.171C262.411 163.41 263.736 163.715 264.214 163.845C266.038 164.301 268.535 164.472 274.745 164.559C280.717 164.667 281.217 164.647 282.02 164.256C282.585 163.975 283.781 163.756 285.496 163.626C286.929 163.496 288.447 163.301 288.86 163.171C289.272 163.062 290.164 162.952 290.815 162.952C291.488 162.952 292.163 162.823 292.293 162.692C292.814 162.172 295.288 161.628 297.655 161.498C298.98 161.432 300.22 161.304 300.437 161.195C301.153 160.805 300.806 160.587 299.633 160.717C298.96 160.782 298.309 160.738 298.07 160.608C297.722 160.39 297.829 160.371 298.654 160.349C299.197 160.349 300.262 160.283 301.022 160.196C302.194 160.087 302.326 160.02 302.001 159.781C301.197 159.195 301.892 159.044 305.497 159.044C308.733 159.044 309.666 158.892 308.711 158.523C308.516 158.457 307.71 158.37 306.928 158.37C306.125 158.348 305.777 158.285 306.125 158.263C306.494 158.221 307.278 158.067 307.907 157.959C308.516 157.828 312.338 157.676 316.378 157.633C320.417 157.59 323.845 157.545 323.997 157.523C324.193 157.523 324.237 157.371 324.15 157.088C324.063 156.784 324.107 156.656 324.346 156.656C324.519 156.656 324.934 156.309 325.259 155.896C325.91 155.05 326.082 155.091 326.364 156.198L326.561 156.915L328.124 156.982C329.362 157.025 329.777 156.961 330.189 156.656C330.471 156.439 331.056 156.199 331.491 156.112L332.295 155.959L332.165 157.221C332.035 158.241 332.057 158.437 332.317 158.35C332.492 158.285 333.183 158.11 333.878 157.958L335.117 157.719L334.639 157.089C334.334 156.741 333.77 156.395 333.271 156.265L332.404 156.045L333.706 156.003C334.415 155.981 335.124 155.981 335.833 156.003C336.29 156.024 336.637 155.94 336.637 155.81C336.637 155.68 336.509 155.569 336.378 155.548C336.226 155.526 335.748 155.503 335.336 155.481C334.923 155.438 334.228 155.199 333.815 154.96C333.402 154.7 332.882 154.486 332.686 154.486C332.469 154.486 332.295 154.375 332.295 154.266C332.295 154.114 332.946 154.05 334.097 154.093C335.856 154.158 335.878 154.158 335.943 154.744C336.03 155.417 336.03 155.417 336.508 155.222C336.588 155.192 336.653 155.133 336.693 155.057C336.733 154.982 336.744 154.894 336.724 154.811C336.594 154.464 336.986 154.178 337.312 154.396C337.441 154.461 337.962 154.548 338.44 154.591C339.612 154.656 345.324 155.113 346.801 155.266C347.582 155.352 347.929 155.483 347.929 155.701C347.929 156.07 348.191 156.089 348.517 155.764C348.69 155.59 349.538 155.615 351.601 155.81C354.121 156.049 354.446 156.111 354.446 156.48C354.446 156.741 354.597 156.874 354.945 156.895C355.206 156.895 356.118 156.981 356.943 157.068C357.79 157.155 358.593 157.197 358.723 157.132C358.875 157.088 359.354 156.439 359.789 155.701C360.636 154.289 361.353 153.396 361.635 153.396C361.744 153.396 361.763 153.551 361.698 153.725C361.611 153.899 361.677 154.051 361.807 154.051C361.96 154.051 362.047 154.224 362.004 154.419C361.96 154.679 362.154 154.831 362.655 154.94C363.458 155.114 363.828 155.352 363.285 155.352C363.089 155.352 362.913 155.482 362.913 155.634C362.913 155.786 364.197 156.331 366.064 156.939C368.062 157.612 369.212 158.088 369.212 158.284C369.212 158.501 368.539 158.349 366.671 157.719C362.242 156.199 360.311 155.873 360.311 156.633C360.311 156.959 360.656 157.112 362.329 157.503C363.415 157.764 364.456 157.958 364.63 157.958C364.782 157.958 365.195 158.197 365.543 158.479C365.89 158.784 367.626 159.499 369.537 160.13C371.47 160.781 373.187 161.476 373.535 161.78C373.882 162.062 374.49 162.454 374.902 162.606C376.271 163.193 378.227 164.95 379.703 166.926C381.832 169.793 381.809 169.685 380.636 169.685C380.094 169.685 378.55 169.534 377.203 169.359C375.857 169.186 374.164 169.033 373.449 169.011C371.928 168.968 359.506 169.208 354.859 169.36L351.707 169.469L351.209 168.404C350.927 167.817 350.123 166.776 349.407 166.059C348.169 164.843 348.105 164.82 347.823 165.233C347.649 165.471 346.995 166.384 346.366 167.231L345.217 168.815L343.806 168.861C343.024 168.861 342.218 168.883 342.023 168.861C341.545 168.819 341.525 169.077 341.959 169.881L342.262 170.488L340.047 170.641C334.01 171.054 321.199 172.639 316.899 173.53C315.943 173.725 313.922 173.877 312.098 173.898C308.84 173.942 308.536 174.029 306.474 175.223C306.104 175.418 305.821 175.463 305.56 175.333C305.321 175.18 305.105 175.224 304.952 175.419C304.714 175.701 303.932 175.83 298.199 176.438C296.94 176.569 294.834 176.852 293.489 177.069C291.143 177.46 291.01 177.46 289.773 177.069C288.469 176.657 284.409 176.113 280.934 175.874L278.979 175.721L277.83 176.764C277.179 177.328 276.286 178.306 275.808 178.935C275.156 179.826 274.809 180.111 274.397 180.111C273.507 180.111 265.58 181.346 259.824 182.388C253.614 183.517 251.27 183.737 249.446 183.367C247.556 182.977 247.533 182.954 247.62 180.565C247.706 178.546 247.686 178.482 247.164 178.221C245.97 177.614 244.82 177.958 243.256 179.37C242.888 179.696 242.454 179.848 241.845 179.848C241.346 179.827 240.434 180.065 239.718 180.413L238.436 181.001L238.499 182.129C238.542 182.737 238.477 183.452 238.346 183.67C238.173 183.93 238.13 185.082 238.217 186.993C238.304 189.317 238.238 190.164 237.935 191.293L237.566 192.684L238.608 194.162C240.693 197.093 242.171 199.328 242.171 199.566C242.171 199.697 242.82 200.394 243.645 201.11C247.229 204.26 248.75 205.107 252.268 205.846C256.003 206.649 256.611 206.605 258.935 205.367C259.999 204.781 261.237 203.976 261.694 203.541C262.258 203.02 263.866 202.174 266.949 200.805C271.749 198.677 272.355 198.438 272.355 198.72C272.355 198.807 272.659 201.738 273.029 205.191C273.789 212.444 274.029 219.395 273.703 224.738C273.442 228.929 273.247 229.514 270.293 235.073C265.711 243.695 260.217 252.035 256.069 256.661C255.331 257.508 254.202 258.963 253.573 259.918C252.378 261.72 250.162 264.133 247.403 266.609C246.47 267.455 245.861 268.171 245.926 268.345C245.991 268.518 246.667 268.865 247.427 269.125C248.165 269.407 248.881 269.713 249.011 269.822C249.358 270.169 249.791 270.037 251.398 269.168L252.961 268.301L253.592 268.736C254.352 269.236 255.722 269.277 256.873 268.843C257.329 268.669 258.241 268.474 258.915 268.431C260.261 268.301 261.129 267.933 262.54 266.847C263.061 266.456 263.735 266.087 264.061 266.001C264.691 265.87 270.142 260.351 273.052 256.877C273.964 255.813 276.244 253.402 278.155 251.534C280.826 248.885 282.021 247.888 283.541 246.976C285.734 245.672 287.471 244.088 287.687 243.154C287.774 242.828 288.056 242.153 288.338 241.654C289.011 240.503 289.772 237.551 289.576 236.812C289.511 236.509 289.185 235.771 288.86 235.162C288.295 234.163 288.254 233.816 288.146 231.035C287.95 226.149 287.168 223.587 284.693 219.744C283.26 217.529 282.91 216.747 282.02 213.88C280.543 208.95 280.11 204.323 280.848 200.696C281.195 198.893 281.368 198.654 282.824 197.807C283.583 197.351 284.583 196.634 285.062 196.199L285.951 195.376L290.164 194.898C292.488 194.616 295.093 194.269 295.918 194.095C296.765 193.921 298.632 193.53 300.065 193.249C301.52 192.944 303.586 192.424 304.651 192.076C305.714 191.707 307.212 191.271 307.994 191.097C309.514 190.75 314.703 190.252 314.877 190.427C314.942 190.492 315.008 193.597 314.987 197.333C314.987 203.196 314.921 204.781 314.422 209.102C313.575 216.508 313.401 218.829 313.183 226.995C312.988 235.117 312.925 235.485 311.599 236.441C310.644 237.135 309.667 237.009 306.778 235.727C305.345 235.097 302.326 233.857 300.046 232.945C297.787 232.033 294.572 230.624 292.943 229.821C291.293 228.995 289.946 228.384 289.946 228.449C289.946 228.514 290.771 229.579 291.791 230.816C292.811 232.055 293.637 233.118 293.637 233.184C293.637 233.249 293.443 233.317 293.183 233.317C292.792 233.317 292.769 233.359 293.073 233.772C293.268 234.054 293.334 234.487 293.269 234.943C293.182 235.53 293.246 235.727 293.68 236.009C293.963 236.205 294.421 236.747 294.703 237.225C294.964 237.68 295.42 238.266 295.702 238.483C295.985 238.7 296.396 239.222 296.636 239.635C296.852 240.047 297.591 240.807 298.286 241.328C298.98 241.849 299.653 242.523 299.783 242.806C299.913 243.132 300.546 243.608 301.284 243.978C302.999 244.846 305.516 247.061 305.928 248.038C306.168 248.647 306.647 249.125 308.037 250.037C309.145 250.775 311.098 252.469 313.27 254.619C317.222 258.528 317.439 258.659 320.654 258.463C322.739 258.312 323.782 257.919 325.02 256.79C325.519 256.334 326.127 255.858 326.345 255.728C326.561 255.597 327.104 254.968 327.517 254.317C327.929 253.644 328.558 252.948 328.884 252.753C329.796 252.21 331.425 249.905 331.425 249.167C331.425 248.081 331.837 247.389 333.271 246.043C334.53 244.87 334.793 244.476 335.575 242.544C336.791 239.59 337.223 237.682 337.614 233.881C338.091 229.19 338.05 223.523 337.507 219.983C336.617 214.206 333.229 198.113 332.208 194.898C331.361 192.228 330.558 188.753 330.558 187.753C330.558 187.515 331.011 187.492 332.793 187.601C334.422 187.709 335.702 187.668 337.57 187.385C339.785 187.059 340.547 187.038 342.893 187.255C344.391 187.386 345.672 187.536 345.715 187.601C345.888 187.753 349.234 198.633 349.798 200.848C350.971 205.387 350.994 205.715 351.233 217.137C351.341 223.109 351.448 230.189 351.492 232.882C351.535 237.42 351.58 237.919 352.122 239.917C352.817 242.458 353.577 244.11 355.141 246.369C355.771 247.259 356.726 248.822 357.269 249.821C358.355 251.841 359.767 253.511 361.592 254.901C363.981 256.747 366.304 258.247 367.738 258.899C369.453 259.68 370.841 260.917 372.21 262.849C372.774 263.631 373.578 264.697 374.013 265.24C374.447 265.783 374.989 266.608 375.228 267.087C375.64 267.955 375.771 268.041 378.117 268.737C379.202 269.062 382.198 269.125 383.871 268.843C384.804 268.69 385.154 268.475 386.653 267.02C388.672 265.065 389.628 263.698 389.628 262.72C389.628 261.2 389.842 260.744 390.733 260.396C391.298 260.179 391.58 259.92 391.58 259.659C391.58 258.291 390.147 252.772 389.408 251.338C388.931 250.383 382.7 241.96 377.466 235.163C371.906 227.975 369.95 224.844 368.8 221.456C368.431 220.306 367.043 212.422 366.174 206.277C365.544 201.868 364.326 197.504 362.415 192.661C361.763 191.01 361.307 189.666 361.416 189.666C361.937 189.666 373.122 192.793 373.773 193.119C374.186 193.336 375.88 194.245 377.509 195.158C379.138 196.091 380.723 196.831 381.005 196.831C381.33 196.831 382.698 197.591 384.305 198.677L387.064 200.523L388.499 200.413C390.561 200.218 390.95 200.131 391.819 199.524C393.057 198.676 393.796 198.546 394.774 199.002C396.663 199.893 397.966 200.045 396.816 199.242C395.1 198.047 394.927 197.46 395.926 195.961C397.121 194.137 397.248 194.008 398.486 193.378C400.462 192.379 400.594 192.142 401.245 188.58C401.549 186.843 401.961 185.146 402.135 184.799C402.634 183.756 402.527 183.085 401.68 182.282C401.245 181.869 400.528 180.933 400.05 180.217C399.377 179.174 399.183 178.676 399.183 177.916C399.183 177.069 399.095 176.896 398.466 176.505C397.976 176.204 397.459 175.949 396.922 175.744C395.988 175.418 394.535 173.878 394.731 173.444C394.814 173.249 394.894 173.053 394.969 172.856C395.144 172.421 393.383 171.466 391.646 171.053C389.909 170.641 389.931 170.64 390.235 170.293C390.387 170.097 390.385 169.424 390.255 168.164C389.603 162.214 387.194 158.046 383.176 155.939C382.308 155.483 381.548 155.027 381.483 154.897C381.07 154.267 375.946 152.312 373.123 151.726C372.233 151.553 370.471 151.119 369.212 150.75C367.952 150.403 366.021 150.03 364.892 149.9C361.656 149.595 357.292 148.859 355.858 148.403C355.141 148.185 353.448 147.795 352.079 147.556C350.711 147.295 349.538 147.014 349.472 146.905C349.386 146.775 348.865 146.795 348.148 146.925C347.323 147.077 346.085 147.079 344.131 146.905C342.589 146.753 338.767 146.664 335.661 146.686C330.884 146.708 329.58 146.645 327.148 146.254C325.585 145.994 323.479 145.797 322.48 145.797C320.091 145.775 313.052 145.059 314.312 144.949C314.508 144.949 315.159 144.821 315.766 144.691C316.765 144.473 316.832 144.427 316.636 143.993C316.419 143.537 316.312 143.516 313.25 143.538C310.644 143.538 310.035 143.605 309.84 143.887C309.623 144.17 309.404 144.19 308.449 144.017C307.429 143.8 307.363 143.756 307.689 143.495C308.036 143.235 308.037 143.169 307.755 142.974C307.581 142.866 307.276 142.754 307.081 142.754C306.798 142.754 293.224 141.408 287.578 140.823C286.47 140.692 285.495 140.564 285.43 140.477C285.365 140.412 285.473 140.368 285.669 140.368C285.886 140.368 286.037 140.28 286.037 140.172C286.037 139.846 284.932 139.761 283.411 139.999C282.347 140.151 281.78 140.15 281.432 139.976C281.02 139.802 281.152 139.783 282.087 139.87C284.149 140.087 283.279 139.586 281.107 139.325C279.934 139.173 278.718 139.02 278.415 138.977C278.074 138.918 277.745 138.808 277.438 138.651C277.221 138.521 274.832 138.11 272.139 137.741C269.446 137.372 266.427 136.827 265.406 136.523C261.888 135.524 258.654 133.895 256.786 132.224L255.807 131.357L256.156 130.53C256.872 128.814 257.784 127.816 259.413 127.034C261.65 125.948 262.671 125.773 267.036 125.642C271.01 125.556 271.945 125.384 271.488 124.863C271.271 124.558 268.145 124.079 266.581 124.079C265.604 124.079 263.171 123.602 260.934 122.95C260.014 122.679 259.056 122.562 258.098 122.604ZM320.784 143.502C320.623 143.497 320.463 143.509 320.305 143.538C319.023 143.756 318.287 144.058 317.636 144.601L316.985 145.122L318.027 145.146C319.135 145.146 319.72 144.929 320.524 144.213C321.029 143.757 321.118 143.531 320.784 143.502ZM361.698 150.239C361.97 150.222 362.275 150.302 362.85 150.465C363.502 150.66 364.217 150.749 364.434 150.684C364.651 150.618 364.911 150.661 364.998 150.813C365.107 151.009 364.782 151.031 363.696 150.923C362.741 150.814 362.262 150.834 362.262 150.986C362.262 151.116 362.523 151.269 362.87 151.334C364.455 151.681 364.716 151.856 363.348 151.726C362.567 151.639 361.393 151.575 360.741 151.553C359.612 151.553 359.548 151.574 359.483 152.118C359.418 152.617 359.266 152.724 358.201 152.942C356.747 153.223 356.944 153.245 355.858 152.745C354.881 152.268 352.729 151.747 350.057 151.334C349.058 151.182 348.561 151.054 348.909 151.032C349.278 151.032 351.276 151.249 353.361 151.553C357.227 152.097 358.311 152.204 358.072 151.965C358.007 151.9 356.314 151.509 354.294 151.118L350.645 150.401L352.773 150.378C354.641 150.357 354.968 150.423 355.532 150.836C356.01 151.183 356.248 151.249 356.422 151.075C356.574 150.924 357.224 150.877 358.245 150.943C359.613 151.051 359.982 151.01 360.742 150.597C361.187 150.369 361.426 150.255 361.698 150.239ZM330.91 153.871C331.018 153.867 331.111 153.886 331.165 153.941C331.253 154.006 331.166 154.158 330.993 154.266C330.58 154.527 330.406 154.528 330.233 154.29C330.135 154.11 330.586 153.882 330.91 153.872V153.871ZM366.234 154.508C366.274 154.494 366.346 154.583 366.476 154.768C366.628 154.963 366.953 155.136 367.17 155.136C367.517 155.136 367.541 155.178 367.259 155.352C367.086 155.46 366.89 155.548 366.824 155.548C366.39 155.504 366.174 155.244 366.174 154.853C366.184 154.637 366.193 154.522 366.234 154.508ZM338.244 155.787C337.81 155.787 337.507 156.155 337.507 156.677C337.507 156.785 338.005 156.872 338.612 156.872C339.655 156.872 339.7 156.851 339.44 156.504C339.005 155.939 338.743 155.787 338.244 155.787ZM382.09 168.752C382.243 168.687 382.613 168.837 382.917 169.054C383.395 169.423 383.395 169.468 383.004 169.446C382.396 169.446 381.7 168.904 382.09 168.752V168.752Z" fill="#2688EB"/>
</svg>
