<svg width="640" height="370" viewBox="0 0 640 370" fill="none" xmlns="http://www.w3.org/2000/svg">
<rect width="640" height="370" fill="#444444"/>
<path d="M320 112.143C360.238 112.143 392.857 144.762 392.857 185C392.857 225.238 360.238 257.857 320 257.857C279.762 257.857 247.143 225.238 247.143 185C247.143 144.762 279.762 112.143 320 112.143ZM320 124.286C286.468 124.286 259.286 151.468 259.286 185C259.286 218.532 286.468 245.714 320 245.714C353.532 245.714 380.714 218.532 380.714 185C380.714 151.468 353.532 124.286 320 124.286ZM350.046 162.634L337.903 199.063C337.298 200.876 335.876 202.298 334.063 202.903L297.634 215.046C292.888 216.628 288.372 212.112 289.954 207.366L302.097 170.937C302.702 169.124 304.124 167.702 305.937 167.097L342.366 154.954C347.112 153.372 351.628 157.888 350.046 162.634ZM334.686 170.314L312.657 177.657L305.314 199.686L327.343 192.343L334.686 170.314Z" fill="#2688EB"/>
</svg>
