<svg width="640" height="370" viewBox="0 0 640 370" fill="none" xmlns="http://www.w3.org/2000/svg">
<rect width="640" height="370" fill="#444444"/>
<path d="M296.165 118.225L344.296 118.226L344.313 130.373L296.455 130.364C286.309 130.453 282.058 131.352 277.679 133.694C273.79 135.774 270.774 138.79 268.694 142.679C266.222 147.301 265.357 151.781 265.357 163.202V206.798C265.357 218.219 266.222 222.699 268.694 227.321C270.774 231.21 273.79 234.226 277.679 236.306C281.815 238.518 285.836 239.443 294.818 239.613L298.202 239.643H341.798L345.182 239.613C354.164 239.443 358.185 238.518 362.321 236.306C366.21 234.226 369.226 231.21 371.306 227.321C373.518 223.185 374.443 219.164 374.613 210.182L374.643 206.798L374.617 160.714L386.77 160.707L386.786 206.798C386.786 220.052 385.555 226.426 382.013 233.048C378.802 239.053 374.053 243.802 368.047 247.013C361.425 250.555 355.052 251.786 341.798 251.786H298.202C284.948 251.786 278.574 250.555 271.952 247.013C265.947 243.802 261.198 239.053 257.986 233.048C254.631 226.774 253.35 220.724 253.225 208.835V161.165C253.35 149.276 254.631 143.226 257.986 136.952C261.198 130.947 265.947 126.198 271.952 122.987C278.226 119.631 284.276 118.35 296.165 118.225ZM375.725 129.275C378.333 131.884 378.333 136.112 375.725 138.72L321.747 192.698C317.699 196.746 312.889 199.95 307.596 202.127L304.959 203.211C303.718 203.721 302.299 203.129 301.789 201.888C301.546 201.297 301.546 200.633 301.789 200.041L302.873 197.404C305.05 192.11 308.254 187.301 312.302 183.253L366.28 129.275C368.888 126.667 373.116 126.667 375.725 129.275ZM380.714 154.643C383.828 154.643 386.394 156.987 386.745 160.006L386.786 160.714H374.643C374.643 157.361 377.361 154.643 380.714 154.643ZM344.286 118.214C347.639 118.214 350.357 120.933 350.357 124.286C350.357 127.399 348.013 129.966 344.994 130.316L344.286 130.357V118.214ZM385.571 112.143C389.595 112.143 392.857 115.405 392.857 119.429C392.857 123.452 389.595 126.714 385.571 126.714C381.548 126.714 378.286 123.452 378.286 119.429C378.286 115.405 381.548 112.143 385.571 112.143Z" fill="#2688EB"/>
</svg>
