<svg width="20" height="20" viewBox="0 0 20 20" fill="none" xmlns="http://www.w3.org/2000/svg">
<path d="M15.7143 7.14286V14.6429C15.7143 16.4181 14.2752 17.8571 12.5 17.8571H7.50003C5.72483 17.8571 4.28575 16.4181 4.28575 14.6429V7.14286H3.77874C3.26978 7.14286 2.85718 6.73026 2.85718 6.22129V5.17857C2.85718 4.09373 3.73662 3.21429 4.82146 3.21429H6.00086C6.37493 2.56673 7.07367 2.14286 7.85718 2.14286H12.1429C12.9264 2.14286 13.6251 2.56673 13.9992 3.21429H15.1786C16.2635 3.21429 17.1429 4.09373 17.1429 5.17857V6.22129C17.1429 6.73026 16.7303 7.14286 16.2213 7.14286H15.7143ZM15 5.71429H15.7143V5.17857C15.7143 4.8827 15.4745 4.64286 15.1786 4.64286H13.5265C13.2005 4.64286 12.916 4.42224 12.8347 4.10661C12.7543 3.79435 12.4707 3.57143 12.1429 3.57143H7.85718C7.52942 3.57143 7.24572 3.79435 7.16535 4.10661C7.08412 4.42224 6.79953 4.64286 6.47361 4.64286H4.82146C4.5256 4.64286 4.28575 4.8827 4.28575 5.17857V5.71429H5.00003H15ZM5.71432 7.14286V14.6429C5.71432 15.6291 6.51381 16.4286 7.50003 16.4286H12.5C13.4863 16.4286 14.2857 15.6291 14.2857 14.6429V7.14286H5.71432Z" fill="#E64646"/>
</svg>
