<svg width="28" height="28" viewBox="0 0 28 28" fill="none" xmlns="http://www.w3.org/2000/svg">
<path fill-rule="evenodd" clip-rule="evenodd" d="M17.6428 25H15C14.4477 25 14 24.5523 14 24C14 23.4477 14.4477 23 15 23H17.6C18.7366 23 19.5289 22.9992 20.1458 22.9488C20.7509 22.8994 21.0986 22.8072 21.362 22.673C21.9265 22.3854 22.3854 21.9265 22.673 21.362C22.8072 21.0986 22.8994 20.7509 22.9488 20.1458C22.9992 19.5289 23 18.7366 23 17.6V10.4C23 9.26339 22.9992 8.47108 22.9488 7.85424C22.8994 7.24907 22.8072 6.90138 22.673 6.63803C22.3854 6.07354 21.9265 5.6146 21.362 5.32698C21.0986 5.1928 20.7509 5.10062 20.1458 5.05118C19.5289 5.00078 18.7366 5 17.6 5H15C14.4477 5 14 4.55228 14 4C14 3.44772 14.4477 3 15 3H17.6428H17.6429C18.7267 2.99999 19.6008 2.99998 20.3086 3.05782C21.0375 3.11737 21.6777 3.24318 22.27 3.54497C23.2108 4.02433 23.9757 4.78924 24.455 5.73005C24.7568 6.32234 24.8826 6.96253 24.9422 7.69138C25 8.39926 25 9.27341 25 10.3572V17.6428C25 18.7266 25 19.6007 24.9422 20.3086C24.8826 21.0375 24.7568 21.6777 24.455 22.27C23.9757 23.2108 23.2108 23.9757 22.27 24.455C21.6777 24.7568 21.0375 24.8826 20.3086 24.9422C19.6007 25 18.7266 25 17.6428 25ZM3 14C3 13.4477 3.44772 13 4 13H13.5858L11.2929 10.7071C10.9024 10.3166 10.9024 9.68342 11.2929 9.29289C11.6834 8.90237 12.3166 8.90237 12.7071 9.29289L16.7064 13.2922C16.7088 13.2946 16.7112 13.297 16.7136 13.2995C16.8063 13.3938 16.8764 13.502 16.9241 13.6172C16.9727 13.7343 16.9996 13.8625 17 13.997C17 13.998 17 13.999 17 14C17 14.001 17 14.002 17 14.003C16.9992 14.2746 16.8901 14.5208 16.7136 14.7005C16.7112 14.703 16.7088 14.7054 16.7064 14.7078L12.7071 18.7071C12.3166 19.0976 11.6834 19.0976 11.2929 18.7071C10.9024 18.3166 10.9024 17.6834 11.2929 17.2929L13.5858 15H4C3.44772 15 3 14.5523 3 14Z" fill="#A8AEBF"/>
</svg>
