<svg width="20" height="20" viewBox="0 0 20 20" fill="none" xmlns="http://www.w3.org/2000/svg">
<path fill-rule="evenodd" clip-rule="evenodd" d="M15.5586 2.38236C14.9474 2.07095 14.2241 2.07095 13.6129 2.38236C13.3073 2.53807 13.0416 2.80446 12.7342 3.11265L3.3407 12.5062C3.08776 12.7591 2.90605 12.9407 2.75676 13.1462C2.45861 13.5565 2.26181 14.0316 2.18246 14.5326C2.14273 14.7835 2.14279 15.0404 2.14288 15.398L2.14289 16.1428L2.14275 16.2006C2.14201 16.4019 2.14111 16.6493 2.21281 16.87C2.35412 17.3049 2.69509 17.6459 3.13001 17.7872C3.35067 17.8589 3.59807 17.858 3.79933 17.8572L3.85717 17.8571L4.60194 17.8571C4.95955 17.8572 5.21647 17.8572 5.46732 17.8175C5.96833 17.7382 6.44344 17.5414 6.85381 17.2432C7.05928 17.0939 7.2409 16.9122 7.49371 16.6593L16.8873 7.26578C17.1955 6.95836 17.4619 6.69265 17.6176 6.38705C17.929 5.77588 17.929 5.05256 17.6176 4.44138C17.4619 4.13579 17.1955 3.87008 16.8873 3.56268L16.4373 3.11266C16.1299 2.80446 15.8642 2.53807 15.5586 2.38236ZM14.2615 3.65523C14.4652 3.55142 14.7063 3.55142 14.91 3.65523C14.9854 3.69364 15.0795 3.7753 15.4949 4.19065L15.8093 4.50508C16.2247 4.92043 16.3063 5.01455 16.3447 5.08994C16.4485 5.29366 16.4485 5.53477 16.3447 5.7385C16.3063 5.81389 16.2247 5.90801 15.8093 6.32336L15.1964 6.93622L13.0637 4.80352L13.6766 4.19065C14.092 3.7753 14.1861 3.69364 14.2615 3.65523ZM12.0536 5.81367L4.38738 13.4799C4.08348 13.7838 3.98742 13.8827 3.9125 13.9858C3.74686 14.2138 3.63753 14.4778 3.59345 14.7561C3.57351 14.882 3.57146 15.0199 3.57146 15.4497V16.1428C3.57146 16.2835 3.57171 16.3605 3.57476 16.4164L3.57526 16.4247L3.58359 16.4252C3.63949 16.4283 3.71644 16.4285 3.85717 16.4285H4.55028C4.98006 16.4285 5.11795 16.4265 5.24384 16.4065C5.52218 16.3624 5.78613 16.2531 6.01411 16.0875C6.11723 16.0126 6.21618 15.9165 6.52008 15.6126L14.1863 7.94638L12.0536 5.81367Z" fill="#7B6EF6"/>
</svg>
