<svg width="28" height="28" viewBox="0 0 28 28" fill="none" xmlns="http://www.w3.org/2000/svg">
<path d="M13 4C17.9706 4 22 8.02944 22 13C22 14.9888 21.3549 16.827 20.2625 18.3167L24.9723 23.0277C25.5092 23.5647 25.5092 24.4353 24.9723 24.9723C24.4353 25.5092 23.5647 25.5092 23.0277 24.9723L18.3167 20.2625C16.827 21.3549 14.9888 22 13 22C8.02944 22 4 17.9706 4 13C4 8.02944 8.02944 4 13 4ZM13 6.75C9.54822 6.75 6.75 9.54822 6.75 13C6.75 16.4518 9.54822 19.25 13 19.25C16.4518 19.25 19.25 16.4518 19.25 13C19.25 9.54822 16.4518 6.75 13 6.75Z" fill="#2D81E0"/>
</svg>
