<svg width="193" height="193" viewBox="0 0 193 193" fill="none" xmlns="http://www.w3.org/2000/svg">
<path d="M85.0023 76.275C88.4105 72.8668 88.4105 67.341 85.0023 63.9328C81.5941 60.5246 76.0683 60.5246 72.6601 63.9328L46.4783 90.1146C44.8416 91.7513 43.9221 93.9711 43.9221 96.2857C43.9221 98.6003 44.8416 100.82 46.4783 102.457L72.6601 128.639C76.0683 132.047 81.5941 132.047 85.0023 128.639C88.4105 125.23 88.4105 119.705 85.0023 116.296L64.9916 96.2857L85.0023 76.275Z" fill="white"/>
<path d="M107.569 63.9328C104.161 67.341 104.161 72.8668 107.569 76.275L127.58 96.2857L107.569 116.296C104.161 119.705 104.161 125.23 107.569 128.639C110.977 132.047 116.503 132.047 119.911 128.639L146.093 102.457C146.298 102.252 146.491 102.039 146.673 101.817C147.945 100.264 148.649 98.311 148.649 96.2857C148.649 93.9711 147.73 91.7513 146.093 90.1146L119.911 63.9328C116.503 60.5246 110.977 60.5246 107.569 63.9328Z" fill="white"/>
<path fill-rule="evenodd" clip-rule="evenodd" d="M0.285767 84.0675C0.285767 54.7411 0.285767 40.0779 5.99306 28.8767C11.0133 19.0239 19.024 11.0133 28.8768 5.993C40.078 0.285706 54.7412 0.285706 84.0676 0.285706H108.504C137.83 0.285706 152.494 0.285706 163.695 5.993C173.548 11.0133 181.558 19.0239 186.578 28.8767C192.286 40.0779 192.286 54.7411 192.286 84.0675V108.504C192.286 137.83 192.286 152.493 186.578 163.695C181.558 173.548 173.548 181.558 163.695 186.578C152.494 192.286 137.83 192.286 108.504 192.286H84.0676C54.7412 192.286 40.078 192.286 28.8768 186.578C19.024 181.558 11.0133 173.548 5.99306 163.695C0.285767 152.493 0.285767 137.83 0.285767 108.504V84.0675ZM51.0966 18.3957C58.9527 17.7538 69.1164 17.7403 84.0676 17.7403H108.504C123.455 17.7403 133.619 17.7538 141.475 18.3957C149.127 19.0209 153.041 20.1542 155.771 21.5451C162.339 24.892 167.68 30.2324 171.026 36.8009C172.417 39.5308 173.551 43.4442 174.176 51.0966C174.818 58.9527 174.831 69.1163 174.831 84.0675V108.504C174.831 123.455 174.818 133.619 174.176 141.475C173.551 149.127 172.417 153.041 171.026 155.77C167.68 162.339 162.339 167.679 155.771 171.026C153.041 172.417 149.127 173.55 141.475 174.176C133.619 174.818 123.455 174.831 108.504 174.831H84.0676C69.1164 174.831 58.9527 174.818 51.0966 174.176C43.4443 173.55 39.5309 172.417 36.801 171.026C30.2324 167.679 24.892 162.339 21.5452 155.77C20.1542 153.041 19.021 149.127 18.3958 141.475C17.7539 133.619 17.7403 123.455 17.7403 108.504V84.0675C17.7403 69.1163 17.7539 58.9527 18.3958 51.0965C19.021 43.4442 20.1542 39.5308 21.5452 36.8009C24.892 30.2324 30.2324 24.892 36.801 21.5451C39.5309 20.1542 43.4443 19.0209 51.0966 18.3957Z" fill="white"/>
</svg>
