<svg width="54" height="54" viewBox="0 0 54 54" fill="none" xmlns="http://www.w3.org/2000/svg">
<path d="M27 3.85718C39.7784 3.85718 50.1428 14.2181 50.1428 27C50.1428 39.782 39.7784 50.1429 27 50.1429C14.218 50.1429 3.85712 39.782 3.85712 27C3.85712 14.2181 14.218 3.85718 27 3.85718ZM27 7.71432C16.3482 7.71432 7.71426 16.3483 7.71426 27C7.71426 37.6518 16.3482 46.2857 27 46.2857C37.6495 46.2857 46.2857 37.6504 46.2857 27C46.2857 16.3496 37.6495 7.71432 27 7.71432ZM26.0357 15.4288C27.1008 15.4288 27.9643 16.2922 27.9643 17.3573V27.2L37.3652 30.9977C38.3528 31.3967 38.83 32.5207 38.431 33.5083C38.032 34.4959 36.908 34.973 35.9205 34.5741L25.3133 30.2891C24.5843 29.9946 24.1071 29.2871 24.1071 28.5009V17.3573C24.1071 16.2922 24.9706 15.4288 26.0357 15.4288Z" fill="white"/>
</svg>
